<svg width="20" height="20" viewBox="0 0 20 20" fill="none" xmlns="http://www.w3.org/2000/svg">
<path d="M10 16.9655C10 16.9655 2.1875 12.8 2.1875 7.7419C2.18766 6.8479 2.51301 5.98155 3.10824 5.29014C3.70347 4.59873 4.53183 4.12494 5.45249 3.94932C6.37315 3.7737 7.32928 3.90709 8.15832 4.32681C8.98736 4.74653 9.63814 5.42668 10 6.25162L9.99999 6.25162C10.3619 5.42669 11.0126 4.74654 11.8417 4.32681C12.6707 3.90709 13.6268 3.7737 14.5475 3.94932C15.4682 4.12494 16.2965 4.59873 16.8918 5.29014C17.487 5.98155 17.8123 6.8479 17.8125 7.7419C17.8125 12.8 10 16.9655 10 16.9655Z" stroke="white" stroke-width="1.5" stroke-linecap="round" stroke-linejoin="round"/>
</svg>
